<?xml version="1.0" ?><svg height="24" id="svg8" version="1.1" viewBox="0 0 6.3499998 6.3500002" width="24" xmlns="http://www.w3.org/2000/svg" xmlns:cc="http://creativecommons.org/ns#" xmlns:dc="http://purl.org/dc/elements/1.1/" xmlns:inkscape="http://www.inkscape.org/namespaces/inkscape" xmlns:rdf="http://www.w3.org/1999/02/22-rdf-syntax-ns#" xmlns:sodipodi="http://sodipodi.sourceforge.net/DTD/sodipodi-0.dtd" xmlns:svg="http://www.w3.org/2000/svg"><defs id="defs2"/><g id="layer1"><path d="m 3.1791305,0.52942508 a 0.26460945,0.26460945 0 0 0 -0.01757,5.1673e-4 0.26460945,0.26460945 0 0 0 -0.1348756,0.0465087 L 0.90950148,2.0316588 A 0.26460945,0.26460945 0 0 0 0.79426301,2.2507669 V 5.557025 A 0.26460945,0.26460945 0 0 0 1.0598798,5.8205749 H 2.4778812 V 5.2722878 c 0,-0.2931599 0.2360086,-0.5291666 0.5291667,-0.5291666 h 0.3358967 c 0.293158,0 0.5291668,0.2360067 0.5291666,0.5291666 V 5.8205749 H 5.2921797 A 0.26460945,0.26460945 0 0 0 5.5557295,5.557025 V 2.2507669 A 0.26460945,0.26460945 0 0 0 5.442558,2.0316588 L 3.3253747,0.57645053 A 0.26460945,0.26460945 0 0 0 3.1791305,0.52942508 Z" id="path1263" style="color:white;font-style:normal;font-variant:normal;font-weight:normal;font-stretch:normal;font-size:medium;line-height:normal;font-family:sans-serif;font-variant-ligatures:normal;font-variant-position:normal;font-variant-caps:normal;font-variant-numeric:normal;font-variant-alternates:normal;font-variant-east-asian:normal;font-feature-settings:normal;font-variation-settings:normal;text-indent:0;text-align:start;text-decoration:none;text-decoration-line:none;text-decoration-style:solid;text-decoration-color:white;letter-spacing:normal;word-spacing:normal;text-transform:none;writing-mode:lr-tb;direction:ltr;text-orientation:mixed;dominant-baseline:auto;baseline-shift:baseline;text-anchor:start;white-space:normal;shape-padding:0;shape-margin:0;inline-size:0;clip-rule:nonzero;display:inline;overflow:visible;visibility:visible;opacity:1;isolation:auto;mix-blend-mode:normal;color-interpolation:sRGB;color-interpolation-filters:linearRGB;solid-color:white;solid-opacity:1;vector-effect:none;fill:white;fill-opacity:1;fill-rule:nonzero;stroke:none;stroke-width:0.529167;stroke-linecap:butt;stroke-linejoin:round;stroke-miterlimit:4;stroke-dasharray:none;stroke-dashoffset:0;stroke-opacity:1;color-rendering:auto;image-rendering:auto;shape-rendering:auto;text-rendering:auto;enable-background:accumulate;stop-color:#000000;stop-opacity:1"/></g></svg>